# xmcd
#
# Track frame offsets:
#	150
#	2891
#	74775
#	161937
#	198513
#	243189
#	265699
#
# Disc length: 3938 seconds
#
# Revision: 0
# Processed by: cddbd v1.5.2PL0 Copyright (c) Steve Scherf et al.
# Submitted via: audiograbber 1.83.01
#
DISCID=620f6007
DTITLE=Grateful Dead - 73-06-30 Universal Amphitheatre, Universal City CA
DYEAR=1900
DGENRE=
TTITLE0=Tuning
TTITLE1=Dark Star
TTITLE2=Eyes Of The World
TTITLE3=Stella Blue
TTITLE4=Sugar Magnolia
TTITLE5=One More Saturday Night
TTITLE6=US Blues
EXTD=
EXTT0=
EXTT1=
EXTT2=
EXTT3=
EXTT4=
EXTT5=
EXTT6=
PLAYORDER=
